# xmcd
#
# Track frame offsets: 
#        150
#        12941
#        26790
#        41628
#        55013
#        69345
#        82698
#        94723
#        107584
#        118965
#        131389
#        142377
#        155229
#        168261
#
# Disc length: 2407 seconds
#
# Revision: 0
# Processed by: cddbd v1.5.2PL0 Copyright (c) Steve Scherf et al.
# Submitted via: ExactAudioCopy v0.99pb4
#
DISCID=b909650e
DTITLE=Jimmie Davis - I Wonder Who's Kissing Her Now [Disc 2]
DYEAR=2001
DGENRE=Country
TTITLE0=On The Sunny Side Of The Rockies
TTITLE1=It Makes No Difference Now
TTITLE2=The Curse Of An Achin' Heart
TTITLE3=I Told You So
TTITLE4=Nobody's Lonesome For Me
TTITLE5=I'm Wondering Now
TTITLE6=Memories
TTITLE7=Same Old Moon Is Shining
TTITLE8=What Good Will It Do
TTITLE9=I Wonder Who's Kissing Her Now
TTITLE10=I'm Hurtin' Too Much To Cry
TTITLE11=Let's Be Sweethearts Again
TTITLE12=In My Heart You Will Always Be Mine
TTITLE13=Yo Yo Mama
EXTD=
EXTT0=
EXTT1=
EXTT2=
EXTT3=
EXTT4=
EXTT5=
EXTT6=
EXTT7=
EXTT8=
EXTT9=
EXTT10=
EXTT11=
EXTT12=
EXTT13=
PLAYORDER=
